<svg width="517" height="111" viewBox="0 0 517 111" fill="none" xmlns="http://www.w3.org/2000/svg">
<g clip-path="url(#clip0_1178:2)">
<path d="M80.7013 0C95.6013 0 120.001 6.52799 120.001 22.746V31.62H110.101V25.602C110.101 15.504 93.1013 10.098 81.0013 10.098C57.7013 10.098 39.8013 28.662 39.8013 54.57C39.8013 80.172 57.6013 100.776 81.5013 100.776C103.201 100.776 115.901 85.68 115.901 85.68L121.901 93.432C121.901 93.432 107.401 110.772 81.4013 110.772C50.6013 110.772 29.0013 85.782 29.0013 54.57C28.8013 23.664 51.1013 0 80.7013 0Z" fill="black"/>
<path d="M170.702 30.498C192.702 30.498 210.402 47.532 210.402 70.278C210.402 93.4321 192.602 110.772 170.802 110.772C148.802 110.772 131.102 93.4321 131.102 70.278C131.102 47.532 148.902 30.498 170.702 30.498ZM170.902 101.49C186.902 101.49 200.002 88.1281 200.002 70.278C200.002 52.938 186.902 39.984 170.902 39.984C154.802 39.984 141.602 52.938 141.602 70.278C141.602 88.1281 154.702 101.49 170.902 101.49Z" fill="black"/>
<path d="M227.803 44.6751C227.803 42.5331 226.603 41.3091 224.503 41.3091H218.203V32.3332H228.703C235.003 32.3332 237.803 34.8832 237.803 41.0032V46.2051C237.803 49.3671 237.503 52.0191 237.503 52.0191H237.803C241.403 40.3911 249.703 31.6191 261.503 31.6191C263.603 31.6191 265.503 32.0272 265.503 32.0272V42.2272C265.503 42.2272 263.703 41.9211 261.803 41.9211C251.203 41.9211 243.303 50.4891 240.003 61.7091C238.503 66.6051 237.903 71.8071 237.903 76.6011V108.935H227.703V44.6751H227.803Z" fill="black"/>
<path d="M277.302 90.1676C277.302 90.1676 285.702 101.796 300.402 101.796C308.802 101.796 316.202 97.7156 316.202 89.6576C316.202 72.9296 274.102 75.9896 274.102 51.3056C274.102 37.4336 285.702 30.5996 300.802 30.5996C308.402 30.5996 323.702 33.6596 323.702 44.4716V50.9996H314.102V47.3276C314.102 41.7176 306.002 39.5756 301.102 39.5756C290.602 39.5756 284.402 43.2476 284.402 50.6936C284.402 67.9316 326.502 63.9536 326.502 89.3516C326.502 102.102 315.102 110.874 300.202 110.874C280.602 110.874 271.402 97.5116 271.402 97.5116L277.302 90.1676Z" fill="black"/>
<path d="M345.002 44.6759C345.002 42.5339 343.802 41.3099 341.702 41.3099H335.402V32.334H346.002C352.402 32.334 355.102 35.0879 355.102 41.6159V96.594C355.102 98.838 356.302 99.9599 358.402 99.9599H364.702V108.936H354.102C347.702 108.936 345.002 106.182 345.002 99.654V44.6759ZM344.702 1.83594H354.602V14.8919H344.702V1.83594Z" fill="black"/>
<path d="M371.3 88.19C371.3 88.19 382.1 100.94 398.8 100.94C411.2 100.94 422.5 91.454 422.5 77.786C422.5 63.302 410.3 55.244 397 55.244H389.7L387.3 49.022L413.1 17.3C415.6 13.832 418.5 11.384 418.5 11.384V11.078C418.5 11.078 415.5 11.486 410 11.486H382.7C380.6 11.486 379.4 12.506 379.4 14.852V21.992H369.7V11.282C369.7 4.75397 372.1 2 378.5 2H431.8V9.03796L400.9 46.064C414 46.778 433.3 54.632 433.3 77.582C433.3 95.738 418.5 110.936 398.6 110.936C377.8 110.936 365 96.044 365 96.044L371.3 88.19Z" fill="black"/>
<path d="M9.60001 46.84C9.60001 44.698 8.39999 43.474 6.29999 43.474H0V34.498H10.6C17 34.498 19.7 37.252 19.7 43.78V98.758C19.7 101.002 20.9 102.124 23 102.124H29.3V111.1H18.7C12.3 111.1 9.60001 108.346 9.60001 101.818V46.84ZM9.29999 4H19.2V17.056H9.29999V4Z" fill="black"/>
<path d="M462.876 18.0791C462.876 21.5503 462.098 24.3469 460.542 26.469C458.987 28.5911 456.88 29.6522 454.223 29.6522C451.511 29.6522 449.376 28.7738 447.821 27.0171V38H444V6.42161H447.49L447.676 8.95125C449.232 6.98375 451.393 6 454.161 6C456.846 6 458.966 7.03294 460.522 9.09881C462.091 11.1647 462.876 14.0386 462.876 17.7207V18.0791ZM459.055 17.6364C459.055 15.0646 458.518 13.0338 457.445 11.5441C456.371 10.0545 454.897 9.30962 453.025 9.30962C450.712 9.30962 448.977 10.3566 447.821 12.4506V23.3491C448.963 25.4291 450.712 26.469 453.066 26.469C454.897 26.469 456.35 25.7312 457.424 24.2556C458.512 22.7659 459.055 20.5595 459.055 17.6364Z" fill="black"/>
<path d="M478.551 9.92095C477.973 9.82257 477.346 9.77339 476.672 9.77339C474.166 9.77339 472.466 10.8625 471.571 13.0408V29.2306H467.75V6.42161H471.467L471.529 9.05665C472.782 7.01888 474.558 6 476.858 6C477.601 6 478.166 6.09838 478.551 6.29513V9.92095Z" fill="black"/>
<path d="M480.658 17.6153C480.658 15.3808 481.084 13.3711 481.938 11.5863C482.805 9.80149 484.003 8.42424 485.532 7.45455C487.074 6.48485 488.829 6 490.798 6C493.841 6 496.298 7.0751 498.171 9.2253C500.057 11.3755 501 14.2354 501 17.805V18.0791C501 20.2995 500.58 22.2951 499.74 24.0659C498.914 25.8226 497.723 27.1928 496.167 28.1765C494.625 29.1603 492.849 29.6522 490.839 29.6522C487.81 29.6522 485.353 28.5771 483.466 26.4269C481.594 24.2767 480.658 21.4308 480.658 17.8893V17.6153ZM484.499 18.0791C484.499 20.6087 485.07 22.6394 486.213 24.1713C487.37 25.7031 488.912 26.469 490.839 26.469C492.78 26.469 494.322 25.6961 495.465 24.1502C496.608 22.5903 497.179 20.4119 497.179 17.6153C497.179 15.1137 496.594 13.09 495.424 11.5441C494.267 9.98419 492.725 9.20422 490.798 9.20422C488.912 9.20422 487.39 9.97014 486.234 11.502C485.077 13.0338 484.499 15.2262 484.499 18.0791Z" fill="black"/>
</g>
<defs>
<clipPath id="clip0_1178:2">
<rect width="517" height="111" fill="white"/>
</clipPath>
</defs>
</svg>
